<!DOCTYPE svg PUBLIC "-//W3C//DTD SVG 1.1//EN" "http://www.w3.org/Graphics/SVG/1.1/DTD/svg11.dtd">
<!-- Uploaded to: SVG Repo, www.svgrepo.com, Transformed by: SVG Repo Mixer Tools -->
<svg fill="#ffffff" width="800px" height="800px" viewBox="0 0 512 512" id="_x30_1" version="1.1" xml:space="preserve" xmlns="http://www.w3.org/2000/svg" xmlns:xlink="http://www.w3.org/1999/xlink" stroke="#ffffff">
<g id="SVGRepo_bgCarrier" stroke-width="0"/>
<g id="SVGRepo_tracerCarrier" stroke-linecap="round" stroke-linejoin="round"/>
<g id="SVGRepo_iconCarrier">
<path d="M256,0C114.615,0,0,114.615,0,256s114.615,256,256,256s256-114.615,256-256S397.385,0,256,0z M366.364,366.309 c-60.922,60.921-159.695,60.921-220.617,0c-30.342-30.342-45.572-70.073-45.691-109.841c-0.04-13.453,10.696-24.72,24.149-24.841 c13.565-0.123,24.601,10.837,24.601,24.374h0.05c0,27.464,10.454,54.929,31.363,75.837c41.817,41.817,109.857,41.817,151.674,0 c41.986-41.985,41.986-109.69,0-151.675c-41.817-41.817-109.857-41.816-151.674,0l0,0c7.367,7.367,3.551,19.973-6.666,22.016 l-43.089,8.618c-9.128,1.826-17.176-6.222-15.35-15.35l8.618-43.089c2.043-10.217,14.649-14.033,22.016-6.666v0 c60.922-60.922,159.695-60.922,220.617,0C427.137,206.463,427.137,305.537,366.364,366.309z M305.26,263.299 c8.744,5.048,11.74,16.229,6.691,24.973v0c-5.048,8.744-16.229,11.74-24.973,6.691l-40.064-23.131l0.001-0.002 c-5.463-3.161-9.142-9.064-9.142-15.83v-64.543c0-10.096,8.185-18.281,18.281-18.281h0c10.096,0,18.281,8.185,18.281,18.281v53.989 L305.26,263.299z"/>
</g>
</svg>