<!DOCTYPE svg PUBLIC "-//W3C//DTD SVG 1.1//EN" "http://www.w3.org/Graphics/SVG/1.1/DTD/svg11.dtd">
<!-- Uploaded to: SVG Repo, www.svgrepo.com, Transformed by: SVG Repo Mixer Tools -->
<svg fill="#ffffff" width="800px" height="800px" viewBox="0 0 24 24" xmlns="http://www.w3.org/2000/svg" stroke="#ffffff">
<g id="SVGRepo_bgCarrier" stroke-width="0"/>
<g id="SVGRepo_tracerCarrier" stroke-linecap="round" stroke-linejoin="round"/>
<g id="SVGRepo_iconCarrier"> <g data-name="Layer 2"> <g data-name="shield"> <rect width="24" height="24" opacity="0"/> <path d="M12 21.85a2 2 0 0 1-1-.25l-.3-.17A15.17 15.17 0 0 1 3 8.23v-.14a2 2 0 0 1 1-1.75l7-3.94a2 2 0 0 1 2 0l7 3.94a2 2 0 0 1 1 1.75v.14a15.17 15.17 0 0 1-7.72 13.2l-.3.17a2 2 0 0 1-.98.25z"/> </g> </g> </g>
</svg>