<!DOCTYPE svg PUBLIC "-//W3C//DTD SVG 1.1//EN" "http://www.w3.org/Graphics/SVG/1.1/DTD/svg11.dtd">
<!-- Uploaded to: SVG Repo, www.svgrepo.com, Transformed by: SVG Repo Mixer Tools -->
<svg height="800px" width="800px" version="1.1" id="_x32_" xmlns="http://www.w3.org/2000/svg" xmlns:xlink="http://www.w3.org/1999/xlink" viewBox="0 0 512 512" xml:space="preserve" fill="#ffffff" stroke="#ffffff">
<g id="SVGRepo_bgCarrier" stroke-width="0"/>
<g id="SVGRepo_tracerCarrier" stroke-linecap="round" stroke-linejoin="round"/>
<g id="SVGRepo_iconCarrier"> <style type="text/css"> .st0{fill:#ffffff;} </style> <g> <path class="st0" d="M288.8,0.457C178.31-6.341,85.289,63.171,87.388,176.413l-0.08,10.255l-48.005,84.759 c-2.584,4.576-2.814,10.106-0.626,14.884c2.187,4.771,6.543,8.202,11.692,9.216l29.673,8.183l9.303,89.891 c0.256,8.66,4.108,16.816,10.634,22.512c6.543,5.688,15.158,8.378,23.773,7.416l23.685,1.887c4.63-0.511,9.251,0.97,12.716,4.065 c3.474,3.104,5.45,7.54,5.45,12.195V512H366.02c0,0,0-33.941,0-47.609c0-13.667,4.717-44.901,13.676-59.204 c32.477-51.956,85.376-79.592,94.292-186.14C482.92,112.508,419.324,8.499,288.8,0.457z"/> </g> </g>
</svg>